<?xml version="1.0" encoding="UTF-8"?>
<svg id="Layer_1" data-name="Layer 1" xmlns="http://www.w3.org/2000/svg" viewBox="0 0 212.6 48.91">
  <defs>
    <style>
      .cls-1 {
        fill: #001a70;
        stroke-width: 0px;
      }
    </style>
  </defs>
  <path class="cls-1"
    d="M4.94,23.45c.64-1.8,1.69-3.34,3.02-4.48h-1.38c-2.29,0-4.14-1.79-4.14-4,0-.23.03-.46.07-.69-1.5.84-2.51,2.44-2.51,4.27,0,2.7,2.19,4.9,4.9,4.9h.05Z" />
  <path class="cls-1"
    d="M54.56,16.14c-.08.21-.18.42-.3.62-1.14,1.89-3.66,2.46-5.62,1.27l-.82-.5-6.36-3.86-5.29-3.21-6.36-3.86-.82-.5c-1.96-1.19-2.62-3.68-1.47-5.57.12-.2.26-.38.41-.55-1.71-.06-3.41.78-4.36,2.35-1.4,2.31-.66,5.33,1.65,6.73l2.27,1.37-4.29,7.08h-9.86c-4.66,0-8.44,4.43-8.44,9.9v19.68c0,.99,1.01,1.51,1.63.83,4.2-4.58,8.43-9.27,16.42-9.14,6.1.1,7.17,1.78,9.2,2.21,1,.21,1.92-.67,1.92-1.86v-4.45l-3.55-2.15c-.15-.09-.19-.28-.1-.43.09-.15.28-.19.43-.11l3.23,1.96h0c1.56.91,3.56.41,4.5-1.14l6.95-11.47,2.27,1.37c2.31,1.4,5.33.66,6.73-1.65.95-1.57.91-3.46.07-4.95ZM30.83,20.68c-1.78,0-3.23-1.45-3.23-3.23s1.45-3.23,3.23-3.23,3.23,1.45,3.23,3.23-1.45,3.23-3.23,3.23Z" />
  <g>
    <path class="cls-1"
      d="M65.89,22.76c0-1.52,1.23-2.74,2.74-2.74h7.81c3.2,0,5.79-2.59,5.79-5.79h-14.45c-4.25,0-7.69,3.44-7.69,7.69v26.38h5.79v-15.32h5.43c3.2,0,5.79-2.59,5.79-5.79h-11.22v-4.42Z" />
    <path class="cls-1"
      d="M98.58,26.35c-.74-.8-1.59-1.49-2.56-2.07-1.38-.82-2.99-1.23-4.78-1.23s-3.4.34-4.93,1c-1.52.66-2.88,1.58-4.03,2.74-1.16,1.16-2.07,2.52-2.72,4.06-.65,1.54-.98,3.21-.98,4.95s.34,3.52,1.01,5.09c.67,1.57,1.61,2.98,2.81,4.18,1.2,1.21,2.6,2.16,4.18,2.83,1.58.68,3.29,1.02,5.08,1.02,1.69,0,3.18-.4,4.43-1.18.87-.54,1.62-1.22,2.24-2.01v2.57h5.93v-24.58h-3.02c-1.46,0-2.64,1.18-2.64,2.64ZM97.22,39.71c-.54,1.1-1.31,1.98-2.28,2.62-.97.64-2.12.96-3.42.96s-2.43-.33-3.49-.97c-1.07-.65-1.93-1.53-2.58-2.63-.65-1.09-.97-2.33-.97-3.68s.32-2.58.94-3.68c.62-1.1,1.48-1.99,2.56-2.64,1.07-.65,2.26-.98,3.55-.98s2.44.32,3.41.96c.97.64,1.74,1.52,2.29,2.62.55,1.11.83,2.36.83,3.72s-.28,2.6-.82,3.7Z" />
    <path class="cls-1"
      d="M124.27,40.85c-.58.68-1.29,1.23-2.12,1.65-.82.41-1.7.62-2.61.62-1.19,0-2.29-.33-3.26-.97-.99-.65-1.78-1.53-2.36-2.61-.58-1.08-.87-2.27-.87-3.53s.29-2.48.86-3.56c.57-1.08,1.36-1.96,2.35-2.62.97-.65,2.08-.98,3.28-.98.86,0,1.72.2,2.55.59.83.39,1.56.97,2.18,1.7l.23.27,5.14-2.79-.28-.39c-1.11-1.56-2.53-2.83-4.24-3.76-1.71-.93-3.59-1.41-5.58-1.41-1.68,0-3.29.34-4.78,1.01-1.48.67-2.8,1.61-3.92,2.79-1.12,1.18-2,2.57-2.64,4.12-.64,1.56-.96,3.25-.96,5.04,0,2.36.56,4.54,1.66,6.49,1.1,1.95,2.59,3.52,4.44,4.67,1.86,1.16,3.94,1.75,6.19,1.75,1.99,0,3.87-.47,5.58-1.41,1.7-.93,3.13-2.18,4.24-3.73l.28-.39-5.14-2.79-.22.27Z" />
    <path class="cls-1"
      d="M163.55,24.8c-1.86-1.16-3.94-1.75-6.19-1.75-1.68,0-3.29.34-4.78,1.01-1.48.67-2.8,1.61-3.92,2.79-1.12,1.18-2,2.57-2.64,4.12-.64,1.56-.96,3.25-.96,5.04,0,2.36.56,4.54,1.66,6.49,1.1,1.95,2.59,3.52,4.44,4.67,1.86,1.16,3.94,1.75,6.19,1.75,1.7,0,3.31-.34,4.79-1.01,1.47-.67,2.79-1.6,3.91-2.79,1.11-1.18,2-2.56,2.64-4.1.63-1.55.96-3.23.96-5,0-2.37-.56-4.57-1.66-6.52-1.1-1.95-2.59-3.53-4.44-4.68ZM162.99,39.54c-.57,1.08-1.36,1.96-2.34,2.61-.97.65-2.08.97-3.3.97s-2.24-.32-3.22-.94c-.99-.63-1.79-1.49-2.38-2.56-.59-1.07-.9-2.29-.9-3.61s.29-2.49.86-3.57c.57-1.09,1.36-1.97,2.35-2.62.97-.65,2.08-.97,3.29-.97s2.28.32,3.25.96c.98.65,1.77,1.52,2.36,2.61.59,1.09.88,2.29.88,3.59s-.29,2.46-.86,3.54Z" />
    <path class="cls-1"
      d="M187.66,23.42c-2.32-.64-4.77-.45-6.82.52-.91.43-1.72.98-2.42,1.64,0-1.03-.84-1.87-1.87-1.87h-3.92v24.58h5.79v-14.09c0-.98.24-1.88.72-2.67.48-.8,1.14-1.45,1.94-1.93,1.27-.75,2.82-.97,4.35-.38l.4.15,2.3-5.82-.46-.13Z" />
    <path class="cls-1"
      d="M204.92,24.8c-1.86-1.16-3.94-1.75-6.19-1.75-1.68,0-3.29.34-4.78,1.01-1.48.67-2.8,1.61-3.92,2.79-1.12,1.18-2,2.57-2.64,4.12-.64,1.56-.96,3.25-.96,5.04,0,2.36.56,4.54,1.66,6.49,1.1,1.95,2.59,3.52,4.44,4.67,1.86,1.16,3.94,1.75,6.19,1.75,1.7,0,3.31-.34,4.79-1.01,1.47-.67,2.79-1.6,3.91-2.79,1.11-1.18,2-2.56,2.64-4.1.63-1.55.96-3.23.96-5,0-2.37-.56-4.57-1.66-6.52-1.1-1.95-2.59-3.53-4.44-4.68ZM204.36,39.54c-.57,1.08-1.36,1.96-2.34,2.61-.97.65-2.08.97-3.3.97s-2.24-.32-3.22-.94c-.99-.63-1.79-1.49-2.38-2.56-.59-1.07-.9-2.29-.9-3.61s.29-2.49.86-3.57c.57-1.09,1.36-1.97,2.35-2.62.97-.65,2.08-.97,3.29-.97s2.28.32,3.25.96c.98.65,1.77,1.52,2.36,2.61.59,1.09.88,2.29.88,3.59s-.29,2.46-.86,3.54Z" />
    <path class="cls-1"
      d="M141.23,42.5c-1.51,0-2.74-1.23-2.74-2.74l.03-10.25h4.98v-5.79h-4.98l-.02-6.26h-5.79s0,23.15,0,23.15c0,4.25,3.44,7.69,7.69,7.69h4.87v-1.77c0-2.22-1.8-4.02-4.02-4.02Z" />
    <g>
      <path class="cls-1"
        d="M211.69,25.57c-.01-.1-.08-.18-.21-.24.19-.1.29-.25.29-.45,0-.16-.05-.28-.14-.37-.08-.09-.2-.13-.37-.13h-.98v1.84h.4v-.72h.38c.17,0,.25.07.25.2,0,.01,0,.04,0,.07,0,.05,0,.08,0,.11,0,.08,0,.15.01.2,0,.04.02.09.05.14h.42v-.09c-.05-.03-.08-.07-.08-.14,0-.2-.01-.34-.02-.42ZM211.31,25.12s-.11.04-.2.04h-.42v-.45h.42c.1,0,.17.01.2.04.04.03.06.09.06.18s-.02.15-.06.18Z" />
      <path class="cls-1"
        d="M212.42,24.58c-.13-.26-.33-.48-.58-.63-.26-.16-.53-.24-.83-.24-.26,0-.49.06-.72.17-.27.14-.48.33-.63.58-.15.26-.23.53-.23.83,0,.25.06.49.17.72.13.27.33.48.58.63.26.16.53.23.81.23.27,0,.51-.06.74-.17.27-.14.48-.33.63-.58.16-.26.23-.53.23-.83,0-.25-.06-.49-.17-.72ZM211.9,26.21c-.25.25-.55.38-.91.38-.19,0-.38-.05-.56-.14-.21-.11-.38-.27-.5-.47-.12-.21-.19-.43-.19-.67,0-.17.03-.33.1-.49.06-.16.16-.3.27-.42.25-.25.55-.38.89-.38.2,0,.4.05.57.14.21.11.38.27.5.47.12.21.18.43.18.67,0,.36-.12.66-.37.91Z" />
    </g>
  </g>
</svg>
